<svg xmlns="http://www.w3.org/2000/svg" version="1.1" xmlns:xlink="http://www.w3.org/1999/xlink" xmlns:svgjs="http://svgjs.com/svgjs" width="1440" height="560" preserveAspectRatio="none" viewBox="0 0 1440 560"><g mask="url(&quot;#SvgjsMask9271&quot;)" fill="none"><rect width="216" height="216" clip-path="url(&quot;#SvgjsClipPath9272&quot;)" x="834.27" y="141.02" fill="url(#SvgjsPattern9273)" transform="rotate(118.83, 942.27, 249.02)"></rect><rect width="144" height="144" clip-path="url(&quot;#SvgjsClipPath9274&quot;)" x="1336.72" y="10.55" fill="url(#SvgjsPattern9275)" transform="rotate(31.47, 1408.72, 82.55)"></rect><path d="M1398.96 245.13 L1294.65 219.87L1404.448874309749 174.85612569025108z" stroke="rgba(253, 66, 65, 1)" stroke-width="1" stroke-dasharray="3, 2"></path><path d="M515.38 186.42000000000002 L557.6700000000001 155.79L555.9434522664314 190.52345226643135z" fill="#037b0b"></path><rect width="60" height="60" clip-path="url(&quot;#SvgjsClipPath9276&quot;)" x="722.52" y="-22.92" fill="url(#SvgjsPattern9277)" transform="rotate(129.28, 752.52, 7.08)"></rect><rect width="372" height="372" clip-path="url(&quot;#SvgjsClipPath9278&quot;)" x="1057.3" y="-69.72" fill="url(#SvgjsPattern9279)" transform="rotate(154.92, 1243.3, 116.28)"></rect><rect width="282.24" height="282.24" clip-path="url(&quot;#SvgjsClipPath9280&quot;)" x="651.05" y="264.21" fill="url(#SvgjsPattern9281)" transform="rotate(138.09, 792.17, 405.33)"></rect><rect width="108" height="108" clip-path="url(&quot;#SvgjsClipPath9282&quot;)" x="1210.51" y="491.85" fill="url(#SvgjsPattern9283)" transform="rotate(137.45, 1264.51, 545.85)"></rect><rect width="198.4" height="198.4" clip-path="url(&quot;#SvgjsClipPath9284&quot;)" x="285.25" y="135.36" fill="url(#SvgjsPattern9285)" transform="rotate(37.43, 384.45, 234.56)"></rect><rect width="106" height="106" clip-path="url(&quot;#SvgjsClipPath9286&quot;)" x="91.99" y="-50.42" fill="url(#SvgjsPattern9287)" transform="rotate(81.97, 144.99, 2.58)"></rect><circle r="46.666666666666664" cx="56.85" cy="316.1" stroke="#d3b714" stroke-width="2.63" stroke-dasharray="2, 2"></circle><circle r="87.51511158393203" cx="1088.58" cy="241.15" stroke="#037b0b" stroke-width="2.66" stroke-dasharray="4, 4"></circle></g><defs><mask id="SvgjsMask9271"><rect width="1440" height="560" fill="#ffffff"></rect></mask><pattern x="0" y="0" width="6" height="6" patternUnits="userSpaceOnUse" id="SvgjsPattern9273"><path d="M0 6L3 0L6 6" stroke="#d3b714" fill="none"></path></pattern><clipPath id="SvgjsClipPath9272"><circle r="54" cx="942.27" cy="249.02"></circle></clipPath><pattern x="0" y="0" width="6" height="6" patternUnits="userSpaceOnUse" id="SvgjsPattern9275"><path d="M0 6L3 0L6 6" stroke="rgba(253, 66, 65, 1)" fill="none"></path></pattern><clipPath id="SvgjsClipPath9274"><circle r="36" cx="1408.72" cy="82.55"></circle></clipPath><pattern x="0" y="0" width="6" height="6" patternUnits="userSpaceOnUse" id="SvgjsPattern9277"><path d="M0 6L3 0L6 6" stroke="#037b0b" fill="none"></path></pattern><clipPath id="SvgjsClipPath9276"><circle r="15" cx="752.52" cy="7.08"></circle></clipPath><pattern x="0" y="0" width="6" height="6" patternUnits="userSpaceOnUse" id="SvgjsPattern9279"><path d="M0 6L3 0L6 6" stroke="#037b0b" fill="none"></path></pattern><clipPath id="SvgjsClipPath9278"><circle r="93" cx="1243.3" cy="116.28"></circle></clipPath><pattern x="0" y="0" width="11.76" height="11.76" patternUnits="userSpaceOnUse" id="SvgjsPattern9281"><path d="M0 11.76L5.88 0L11.76 11.76" stroke="#d3b714" fill="none"></path></pattern><clipPath id="SvgjsClipPath9280"><circle r="70.56" cx="792.17" cy="405.33"></circle></clipPath><pattern x="0" y="0" width="6" height="6" patternUnits="userSpaceOnUse" id="SvgjsPattern9283"><path d="M3 1L3 5M1 3L5 3" stroke="rgba(253, 66, 65, 1)" fill="none" stroke-width="1.67"></path></pattern><clipPath id="SvgjsClipPath9282"><circle r="27" cx="1264.51" cy="545.85"></circle></clipPath><pattern x="0" y="0" width="12.4" height="12.4" patternUnits="userSpaceOnUse" id="SvgjsPattern9285"><path d="M6.2 1L6.2 11.4M1 6.2L11.4 6.2" stroke="rgba(253, 66, 65, 1)" fill="none" stroke-width="2.01"></path></pattern><clipPath id="SvgjsClipPath9284"><circle r="49.6" cx="384.45" cy="234.56"></circle></clipPath><pattern x="0" y="0" width="106" height="10.6" patternUnits="userSpaceOnUse" id="SvgjsPattern9287"><rect width="106" height="5.3" x="0" y="0" fill="#d3b714"></rect><rect width="106" height="5.3" x="0" y="5.3" fill="rgba(0, 0, 0, 0)"></rect></pattern><clipPath id="SvgjsClipPath9286"><circle r="26.5" cx="144.99" cy="2.58"></circle></clipPath></defs></svg>