<svg xmlns="http://www.w3.org/2000/svg" version="1.1" xmlns:xlink="http://www.w3.org/1999/xlink" xmlns:svgjs="http://svgjs.com/svgjs" width="1440" height="560" preserveAspectRatio="none" viewBox="0 0 1440 560"><g mask="url(&quot;#SvgjsMask9728&quot;)" fill="none"><circle r="89.74326980198941" cx="917.85" cy="266.89" fill="rgba(253, 66, 65, 1)"></circle><rect width="60" height="60" clip-path="url(&quot;#SvgjsClipPath9729&quot;)" x="660.26" y="45.05" fill="url(#SvgjsPattern9730)" transform="rotate(245.43, 690.26, 75.05)"></rect><path d="M670.2 357.13L672.75 344.58 685.56 344.32 688.11 331.77 700.91 331.5 703.46 318.95 716.27 318.69" stroke="#037b0b" stroke-width="1.7" stroke-dasharray="3, 2"></path><path d="M26.92 79.96L15.53 85.82 7.32 75.99-4.07 81.85-12.28 72.02-23.67 77.88-31.89 68.05M28.51 72.12L17.12 77.98 8.91 68.15-2.48 74.01-10.7 64.18-22.08 70.04-30.3 60.21M30.1 64.28L18.71 70.14 10.49 60.31-0.89 66.17-9.11 56.34-20.5 62.2-28.71 52.37" stroke="#037b0b" stroke-width="1.94"></path><path d="M1077.66 209.57L1064.88 210.32 1061.34 198.01 1048.56 198.76 1045.02 186.45 1032.24 187.2 1028.7 174.89M1082.29 203.04L1069.5 203.79 1065.96 191.48 1053.18 192.23 1049.64 179.92 1036.86 180.67 1033.32 168.36" stroke="rgba(253, 66, 65, 1)" stroke-width="1.55" stroke-dasharray="3, 2"></path><rect width="297.84" height="297.84" clip-path="url(&quot;#SvgjsClipPath9731&quot;)" x="1158.71" y="288.83" fill="url(#SvgjsPattern9732)" transform="rotate(64.43, 1307.63, 437.75)"></rect><circle r="46.666666666666664" cx="184.71" cy="410.12" stroke="rgba(253, 66, 65, 1)" stroke-width="1.35" stroke-dasharray="4, 4"></circle><rect width="168" height="168" clip-path="url(&quot;#SvgjsClipPath9733&quot;)" x="728.59" y="-68.3" fill="url(#SvgjsPattern9734)" transform="rotate(37.72, 812.59, 15.7)"></rect><circle r="50.68606214353149" cx="407.82" cy="382.49" fill="rgba(253, 66, 65, 1)"></circle><path d="M542.97 76.96 L524.08 179.84L460.1388930495577 55.01389304955761z" fill="#037b0b"></path><path d="M1358.48 497.34a5.6 5.6 0 1 0 6.26-9.29 5.6 5.6 0 1 0-6.26 9.29zM1367.43 484.07a5.6 5.6 0 1 0 6.26-9.28 5.6 5.6 0 1 0-6.26 9.28zM1376.37 470.81a5.6 5.6 0 1 0 6.26-9.29 5.6 5.6 0 1 0-6.26 9.29zM1385.32 457.54a5.6 5.6 0 1 0 6.26-9.29 5.6 5.6 0 1 0-6.26 9.29z" stroke="rgba(253, 66, 65, 1)" stroke-width="1.92" stroke-dasharray="2, 2"></path><rect width="87.4" height="87.4" clip-path="url(&quot;#SvgjsClipPath9735&quot;)" x="286.15" y="222.92" fill="url(#SvgjsPattern9736)" transform="rotate(276, 329.85, 266.62)"></rect></g><defs><mask id="SvgjsMask9728"><rect width="1440" height="560" fill="#ffffff"></rect></mask><pattern x="0" y="0" width="6" height="6" patternUnits="userSpaceOnUse" id="SvgjsPattern9730"><path d="M3 1L3 5M1 3L5 3" stroke="rgba(253, 66, 65, 1)" fill="none" stroke-width="1"></path></pattern><clipPath id="SvgjsClipPath9729"><circle r="15" cx="690.26" cy="75.05"></circle></clipPath><pattern x="0" y="0" width="8.76" height="8.76" patternUnits="userSpaceOnUse" id="SvgjsPattern9732"><path d="M4.38 1L4.38 7.76M1 4.38L7.76 4.38" stroke="#037b0b" fill="none" stroke-width="2.56"></path></pattern><clipPath id="SvgjsClipPath9731"><circle r="74.46" cx="1307.63" cy="437.75"></circle></clipPath><pattern x="0" y="0" width="7" height="7" patternUnits="userSpaceOnUse" id="SvgjsPattern9734"><path d="M0 7L3.5 0L7 7" stroke="rgba(253, 66, 65, 1)" fill="none"></path></pattern><clipPath id="SvgjsClipPath9733"><circle r="42" cx="812.59" cy="15.7"></circle></clipPath><pattern x="0" y="0" width="8.74" height="8.74" patternUnits="userSpaceOnUse" id="SvgjsPattern9736"><path d="M0 8.74L4.37 0L8.74 8.74" stroke="#037b0b" fill="none"></path></pattern><clipPath id="SvgjsClipPath9735"><circle r="21.85" cx="329.85" cy="266.62"></circle></clipPath></defs></svg>